<svg id="Group_9356" data-name="Group 9356" xmlns="http://www.w3.org/2000/svg" width="21.412" height="21.412" viewBox="0 0 21.412 21.412">
  <path id="Path_1479" data-name="Path 1479" d="M0,0H21.412V21.412H0Z" fill="none"/>
  <path id="paperclip-solid" d="M17.555,12.241a2.312,2.312,0,0,0-3.27,0L7.478,19.048a3.987,3.987,0,1,0,5.638,5.638l5.623-5.623A1.04,1.04,0,0,1,20.2,20.529l-5.623,5.623a6.059,6.059,0,1,1-8.568-8.568l6.807-6.807a4.385,4.385,0,1,1,6.2,6.2L12.51,23.489a2.712,2.712,0,0,1-3.835-3.835L14,14.326a1.04,1.04,0,0,1,1.465,1.465l-5.327,5.327a.638.638,0,0,0,.9.9l6.511-6.511a2.313,2.313,0,0,0,0-3.27Z" transform="translate(-1.638 -8.004)" fill="#667286"/>
</svg>
