<svg xmlns="http://www.w3.org/2000/svg" width="30" height="30" viewBox="0 0 30 30">
  <g id="Group_5802" data-name="Group 5802" transform="translate(-0.354 0.327)">
    <rect id="Rectangle_4487" data-name="Rectangle 4487" width="30" height="30" rx="4" transform="translate(0.354 -0.327)" fill="rgba(255,255,255,0)"/>
    <path id="Icon_ionic-md-notifications-outline" data-name="Icon ionic-md-notifications-outline" d="M13.284,6.511a6.255,6.255,0,0,1,1.035.194,4.41,4.41,0,0,1,3.361,4.32v5.522l.4.405.337.338H8.061l.337-.338.4-.405V11.025A4.41,4.41,0,0,1,12.163,6.7,7.66,7.66,0,0,1,13.2,6.511m.043-3.136A1.323,1.323,0,0,0,11.9,4.725v.63a5.833,5.833,0,0,0-4.48,5.67v4.95l-1.792,1.8v.9H20.856v-.9l-1.792-1.8v-4.95a5.833,5.833,0,0,0-4.48-5.67v-.63a1.323,1.323,0,0,0-1.344-1.35Zm1.792,16.2H11.449a1.792,1.792,0,1,0,3.584,0Z" transform="translate(2.114 2.298)" fill="#667286"/>
  </g>
</svg>
