<svg xmlns="http://www.w3.org/2000/svg" xmlns:xlink="http://www.w3.org/1999/xlink" width="18" height="490" viewBox="0 0 18 490">
  <defs>
    <clipPath id="clip-path">
      <rect width="16" height="490" fill="none"/>
    </clipPath>
  </defs>
  <g id="Group_9708" data-name="Group 9708" transform="translate(-13842 -5493)">
    <g id="Group_9707" data-name="Group 9707" transform="translate(12864 5238)">
      <path id="Path_6797" data-name="Path 6797" d="M0,0H17.749A28.022,28.022,0,0,1,18,5.28V484.72a28.022,28.022,0,0,1-.251,5.28H0Z" transform="translate(978 255)"/>
      <path id="Path_6796" data-name="Path 6796" d="M0,0H18V490H0Z" transform="translate(978 255)"/>
      <g id="Repeat_Grid_1" data-name="Repeat Grid 1" transform="translate(978 255)" clip-path="url(#clip-path)">
        <g transform="translate(-978 -255)">
          <rect id="Rectangle_5381" data-name="Rectangle 5381" width="8" height="8" transform="translate(978 255)" fill="#bd9255"/>
          <rect id="Rectangle_5382" data-name="Rectangle 5382" width="8" height="8" transform="translate(986 263)" fill="#bd9255"/>
        </g>
        <g transform="translate(-978 -239)">
          <rect id="Rectangle_5381-2" data-name="Rectangle 5381" width="8" height="8" transform="translate(978 255)" fill="#bd9255"/>
          <rect id="Rectangle_5382-2" data-name="Rectangle 5382" width="8" height="8" transform="translate(986 263)" fill="#bd9255"/>
        </g>
        <g transform="translate(-978 -223)">
          <rect id="Rectangle_5381-3" data-name="Rectangle 5381" width="8" height="8" transform="translate(978 255)" fill="#bd9255"/>
          <rect id="Rectangle_5382-3" data-name="Rectangle 5382" width="8" height="8" transform="translate(986 263)" fill="#bd9255"/>
        </g>
        <g transform="translate(-978 -207)">
          <rect id="Rectangle_5381-4" data-name="Rectangle 5381" width="8" height="8" transform="translate(978 255)" fill="#bd9255"/>
          <rect id="Rectangle_5382-4" data-name="Rectangle 5382" width="8" height="8" transform="translate(986 263)" fill="#bd9255"/>
        </g>
        <g transform="translate(-978 -191)">
          <rect id="Rectangle_5381-5" data-name="Rectangle 5381" width="8" height="8" transform="translate(978 255)" fill="#bd9255"/>
          <rect id="Rectangle_5382-5" data-name="Rectangle 5382" width="8" height="8" transform="translate(986 263)" fill="#bd9255"/>
        </g>
        <g transform="translate(-978 -175)">
          <rect id="Rectangle_5381-6" data-name="Rectangle 5381" width="8" height="8" transform="translate(978 255)" fill="#bd9255"/>
          <rect id="Rectangle_5382-6" data-name="Rectangle 5382" width="8" height="8" transform="translate(986 263)" fill="#bd9255"/>
        </g>
        <g transform="translate(-978 -159)">
          <rect id="Rectangle_5381-7" data-name="Rectangle 5381" width="8" height="8" transform="translate(978 255)" fill="#bd9255"/>
          <rect id="Rectangle_5382-7" data-name="Rectangle 5382" width="8" height="8" transform="translate(986 263)" fill="#bd9255"/>
        </g>
        <g transform="translate(-978 -143)">
          <rect id="Rectangle_5381-8" data-name="Rectangle 5381" width="8" height="8" transform="translate(978 255)" fill="#bd9255"/>
          <rect id="Rectangle_5382-8" data-name="Rectangle 5382" width="8" height="8" transform="translate(986 263)" fill="#bd9255"/>
        </g>
        <g transform="translate(-978 -127)">
          <rect id="Rectangle_5381-9" data-name="Rectangle 5381" width="8" height="8" transform="translate(978 255)" fill="#bd9255"/>
          <rect id="Rectangle_5382-9" data-name="Rectangle 5382" width="8" height="8" transform="translate(986 263)" fill="#bd9255"/>
        </g>
        <g transform="translate(-978 -111)">
          <rect id="Rectangle_5381-10" data-name="Rectangle 5381" width="8" height="8" transform="translate(978 255)" fill="#bd9255"/>
          <rect id="Rectangle_5382-10" data-name="Rectangle 5382" width="8" height="8" transform="translate(986 263)" fill="#bd9255"/>
        </g>
        <g transform="translate(-978 -95)">
          <rect id="Rectangle_5381-11" data-name="Rectangle 5381" width="8" height="8" transform="translate(978 255)" fill="#bd9255"/>
          <rect id="Rectangle_5382-11" data-name="Rectangle 5382" width="8" height="8" transform="translate(986 263)" fill="#bd9255"/>
        </g>
        <g transform="translate(-978 -79)">
          <rect id="Rectangle_5381-12" data-name="Rectangle 5381" width="8" height="8" transform="translate(978 255)" fill="#bd9255"/>
          <rect id="Rectangle_5382-12" data-name="Rectangle 5382" width="8" height="8" transform="translate(986 263)" fill="#bd9255"/>
        </g>
        <g transform="translate(-978 -63)">
          <rect id="Rectangle_5381-13" data-name="Rectangle 5381" width="8" height="8" transform="translate(978 255)" fill="#bd9255"/>
          <rect id="Rectangle_5382-13" data-name="Rectangle 5382" width="8" height="8" transform="translate(986 263)" fill="#bd9255"/>
        </g>
        <g transform="translate(-978 -47)">
          <rect id="Rectangle_5381-14" data-name="Rectangle 5381" width="8" height="8" transform="translate(978 255)" fill="#bd9255"/>
          <rect id="Rectangle_5382-14" data-name="Rectangle 5382" width="8" height="8" transform="translate(986 263)" fill="#bd9255"/>
        </g>
        <g transform="translate(-978 -31)">
          <rect id="Rectangle_5381-15" data-name="Rectangle 5381" width="8" height="8" transform="translate(978 255)" fill="#bd9255"/>
          <rect id="Rectangle_5382-15" data-name="Rectangle 5382" width="8" height="8" transform="translate(986 263)" fill="#bd9255"/>
        </g>
        <g transform="translate(-978 -15)">
          <rect id="Rectangle_5381-16" data-name="Rectangle 5381" width="8" height="8" transform="translate(978 255)" fill="#bd9255"/>
          <rect id="Rectangle_5382-16" data-name="Rectangle 5382" width="8" height="8" transform="translate(986 263)" fill="#bd9255"/>
        </g>
        <g transform="translate(-978 1)">
          <rect id="Rectangle_5381-17" data-name="Rectangle 5381" width="8" height="8" transform="translate(978 255)" fill="#bd9255"/>
          <rect id="Rectangle_5382-17" data-name="Rectangle 5382" width="8" height="8" transform="translate(986 263)" fill="#bd9255"/>
        </g>
        <g transform="translate(-978 17)">
          <rect id="Rectangle_5381-18" data-name="Rectangle 5381" width="8" height="8" transform="translate(978 255)" fill="#bd9255"/>
          <rect id="Rectangle_5382-18" data-name="Rectangle 5382" width="8" height="8" transform="translate(986 263)" fill="#bd9255"/>
        </g>
        <g transform="translate(-978 33)">
          <rect id="Rectangle_5381-19" data-name="Rectangle 5381" width="8" height="8" transform="translate(978 255)" fill="#bd9255"/>
          <rect id="Rectangle_5382-19" data-name="Rectangle 5382" width="8" height="8" transform="translate(986 263)" fill="#bd9255"/>
        </g>
        <g transform="translate(-978 49)">
          <rect id="Rectangle_5381-20" data-name="Rectangle 5381" width="8" height="8" transform="translate(978 255)" fill="#bd9255"/>
          <rect id="Rectangle_5382-20" data-name="Rectangle 5382" width="8" height="8" transform="translate(986 263)" fill="#bd9255"/>
        </g>
        <g transform="translate(-978 65)">
          <rect id="Rectangle_5381-21" data-name="Rectangle 5381" width="8" height="8" transform="translate(978 255)" fill="#bd9255"/>
          <rect id="Rectangle_5382-21" data-name="Rectangle 5382" width="8" height="8" transform="translate(986 263)" fill="#bd9255"/>
        </g>
        <g transform="translate(-978 81)">
          <rect id="Rectangle_5381-22" data-name="Rectangle 5381" width="8" height="8" transform="translate(978 255)" fill="#bd9255"/>
          <rect id="Rectangle_5382-22" data-name="Rectangle 5382" width="8" height="8" transform="translate(986 263)" fill="#bd9255"/>
        </g>
        <g transform="translate(-978 97)">
          <rect id="Rectangle_5381-23" data-name="Rectangle 5381" width="8" height="8" transform="translate(978 255)" fill="#bd9255"/>
          <rect id="Rectangle_5382-23" data-name="Rectangle 5382" width="8" height="8" transform="translate(986 263)" fill="#bd9255"/>
        </g>
        <g transform="translate(-978 113)">
          <rect id="Rectangle_5381-24" data-name="Rectangle 5381" width="8" height="8" transform="translate(978 255)" fill="#bd9255"/>
          <rect id="Rectangle_5382-24" data-name="Rectangle 5382" width="8" height="8" transform="translate(986 263)" fill="#bd9255"/>
        </g>
        <g transform="translate(-978 129)">
          <rect id="Rectangle_5381-25" data-name="Rectangle 5381" width="8" height="8" transform="translate(978 255)" fill="#bd9255"/>
          <rect id="Rectangle_5382-25" data-name="Rectangle 5382" width="8" height="8" transform="translate(986 263)" fill="#bd9255"/>
        </g>
        <g transform="translate(-978 145)">
          <rect id="Rectangle_5381-26" data-name="Rectangle 5381" width="8" height="8" transform="translate(978 255)" fill="#bd9255"/>
          <rect id="Rectangle_5382-26" data-name="Rectangle 5382" width="8" height="8" transform="translate(986 263)" fill="#bd9255"/>
        </g>
        <g transform="translate(-978 161)">
          <rect id="Rectangle_5381-27" data-name="Rectangle 5381" width="8" height="8" transform="translate(978 255)" fill="#bd9255"/>
          <rect id="Rectangle_5382-27" data-name="Rectangle 5382" width="8" height="8" transform="translate(986 263)" fill="#bd9255"/>
        </g>
        <g transform="translate(-978 177)">
          <rect id="Rectangle_5381-28" data-name="Rectangle 5381" width="8" height="8" transform="translate(978 255)" fill="#bd9255"/>
          <rect id="Rectangle_5382-28" data-name="Rectangle 5382" width="8" height="8" transform="translate(986 263)" fill="#bd9255"/>
        </g>
        <g transform="translate(-978 193)">
          <rect id="Rectangle_5381-29" data-name="Rectangle 5381" width="8" height="8" transform="translate(978 255)" fill="#bd9255"/>
          <rect id="Rectangle_5382-29" data-name="Rectangle 5382" width="8" height="8" transform="translate(986 263)" fill="#bd9255"/>
        </g>
        <g transform="translate(-978 209)">
          <rect id="Rectangle_5381-30" data-name="Rectangle 5381" width="8" height="8" transform="translate(978 255)" fill="#bd9255"/>
          <rect id="Rectangle_5382-30" data-name="Rectangle 5382" width="8" height="8" transform="translate(986 263)" fill="#bd9255"/>
        </g>
        <g transform="translate(-978 225)">
          <rect id="Rectangle_5381-31" data-name="Rectangle 5381" width="8" height="8" transform="translate(978 255)" fill="#bd9255"/>
          <rect id="Rectangle_5382-31" data-name="Rectangle 5382" width="8" height="8" transform="translate(986 263)" fill="#bd9255"/>
        </g>
      </g>
    </g>
  </g>
</svg>
