<svg xmlns="http://www.w3.org/2000/svg" width="18.418" height="18.211" viewBox="0 0 18.418 18.211">
  <path id="Path_7023" data-name="Path 7023" d="M21.071,22.068H12.642a.341.341,0,0,0-.224.084L8.864,25.461V22.416a.346.346,0,0,0-.343-.348H5.735a1.056,1.056,0,0,1-1.048-1.062V11.125A1.058,1.058,0,0,1,5.735,10.06H19.667a1.058,1.058,0,0,1,1.048,1.065V22.012c0,.192.39.4.58.4s.107-.212.107-.4V11.125a1.75,1.75,0,0,0-1.734-1.761H5.735A1.75,1.75,0,0,0,4,11.125v9.882a1.748,1.748,0,0,0,1.735,1.758H8.177v3.454a.351.351,0,0,0,.2.313.342.342,0,0,0,.366-.049l4.025-3.718h8.3a.348.348,0,0,0,0-.7Z" transform="translate(-3.5 -8.864)" fill="#2863ff" stroke="#2863ff" stroke-width="1"/>
</svg>
