<svg xmlns="http://www.w3.org/2000/svg" width="16.458" height="14.525" viewBox="0 0 16.458 14.525">
  <g id="comment" transform="translate(0.2 0.2)">
    <path id="Path_7023" data-name="Path 7023" d="M19.738,20.923H10.416A.317.317,0,0,0,10.21,21l-1.726,1.48v-1.24a.317.317,0,0,0-.317-.317H5.6a.967.967,0,0,1-.966-.966V10.966A.969.969,0,0,1,5.6,10H18.444a.969.969,0,0,1,.966.969v9.905c0,.175.36.368.534.368s.1-.193.1-.368V10.966a1.6,1.6,0,0,0-1.6-1.6H5.6a1.6,1.6,0,0,0-1.6,1.6v8.991a1.6,1.6,0,0,0,1.6,1.6H7.851v1.612a.319.319,0,0,0,.523.24l2.16-1.852h9.2a.317.317,0,1,0,0-.633Z" transform="translate(-4 -9.364)" fill="#667286" stroke="#667286" stroke-width="0.4"/>
  </g>
</svg>
