<svg xmlns="http://www.w3.org/2000/svg" width="28.152" height="28.152" viewBox="0 0 28.152 28.152">
  <g id="Group_9726" data-name="Group 9726" transform="translate(-1400.953 -19.424)">
    <circle id="Ellipse_1" data-name="Ellipse 1" cx="4.124" cy="4.124" r="4.124" transform="translate(1410.93 29.401)" fill="none" stroke="#000" stroke-linecap="round" stroke-linejoin="round" stroke-width="1.5"/>
    <path id="Path_9" data-name="Path 9" d="M23.291,17.961a2,2,0,0,0,.4,2.2l.073.073a2.424,2.424,0,1,1-3.428,3.428l-.073-.073a2.015,2.015,0,0,0-3.416,1.43v.206a2.423,2.423,0,0,1-4.846,0V25.12a2,2,0,0,0-1.308-1.829,2,2,0,0,0-2.2.4l-.073.073a2.424,2.424,0,1,1-3.428-3.428l.073-.073a2.015,2.015,0,0,0-1.43-3.416H3.423a2.423,2.423,0,1,1,0-4.846h.109a2,2,0,0,0,1.829-1.308,2,2,0,0,0-.4-2.2l-.073-.073A2.424,2.424,0,1,1,8.317,4.986l.073.073a2,2,0,0,0,2.2.4h.1A2,2,0,0,0,11.9,3.629V3.423a2.423,2.423,0,1,1,4.846,0v.109a2.015,2.015,0,0,0,3.416,1.43l.073-.073a2.424,2.424,0,1,1,3.428,3.428l-.073.073a2,2,0,0,0-.4,2.2v.1A2,2,0,0,0,25.023,11.9h.206a2.423,2.423,0,0,1,0,4.846H25.12A2,2,0,0,0,23.291,17.961Z" transform="translate(1400.703 19.174)" fill="none" stroke="#000" stroke-linecap="round" stroke-linejoin="round" stroke-width="1.5"/>
  </g>
</svg>
