<svg xmlns="http://www.w3.org/2000/svg" width="16.32" height="17" viewBox="0 0 16.32 17">
  <g id="Camada_2" data-name="Camada 2" transform="translate(0.25 0.25)">
    <g id="Camada_1" data-name="Camada 1">
      <path id="Path_5167" data-name="Path 5167" d="M15.47,15.783H1.176L6.259,6.115l2.229,5.23a.343.343,0,0,0,.117.079.331.331,0,0,0,.261,0,.343.343,0,0,0,.117-.079l6-9.176V4.487a.344.344,0,1,0,.688,0V1.3a.352.352,0,0,0-.344-.359H12.278a.352.352,0,0,0-.344.359.352.352,0,0,0,.344.359H14.5L8.729,10.585,6.5,5.355a.334.334,0,0,0-.488,0L.688,15.273V.359A.352.352,0,0,0,.344,0,.352.352,0,0,0,0,.359V16.141a.367.367,0,0,0,.1.251h0a.356.356,0,0,0,.11.072.339.339,0,0,0,.138.036H15.476a.359.359,0,0,0,0-.717Z" transform="translate(0)" fill="#fff" stroke="#fff" stroke-width="0.5"/>
    </g>
  </g>
</svg>
