<svg xmlns="http://www.w3.org/2000/svg" width="18.352" height="18.673" viewBox="0 0 18.352 18.673">
  <g id="Component_404_16" data-name="Component 404 – 16" transform="translate(0.1 0.1)">
    <g id="due-date" transform="translate(-6.38 -4.23)">
      <path id="Path_7507" data-name="Path 7507" d="M26.658,35.557H8.879V32.719a.746.746,0,0,1,.746-.746H25.912a.746.746,0,0,1,.746.746v2.837Z" transform="translate(-2.313 -25.673)" fill="#f47267"/>
      <path id="Path_7509" data-name="Path 7509" d="M11.43,10.4a.712.712,0,0,1-.712-.712V7.441a.712.712,0,0,1,1.424,0V9.693A.712.712,0,0,1,11.43,10.4Zm4.225,0a.712.712,0,0,1-.712-.712V7.441a.712.712,0,0,1,1.424,0V9.693A.712.712,0,0,1,15.656,10.4Zm4.225,0a.712.712,0,0,1-.712-.712V7.441a.712.712,0,0,1,1.424,0V9.693a.712.712,0,0,1-.712.712Zm4.225,0a.712.712,0,0,1-.712-.712V7.441a.712.712,0,1,1,1.424,0V9.693a.712.712,0,0,1-.712.712Zm1.805,14.424H9.625a.746.746,0,0,1-.746-.746V12.2H26.658V24.083A.746.746,0,0,1,25.912,24.829Z" transform="translate(-2.313 -2.313)" fill="#efefef"/>
      <path id="Path_7510" data-name="Path 7510" d="M43.277,102.018a2.239,2.239,0,0,1-1.884-3.448l4.039-6.3a2.239,2.239,0,0,1,3.769,0l4.039,6.3a2.239,2.239,0,0,1-1.884,3.448Z" transform="translate(-32.068 -80.522)" fill="none"/>
      <path id="Path_7515" data-name="Path 7515" d="M6.38,21.77a.934.934,0,0,0,.933.933H23.6a.934.934,0,0,0,.933-.933V7.046a.934.934,0,0,0-.933-.933h-.906V5.129a.9.9,0,0,0-1.8,0v.985H18.467V5.129a.9.9,0,0,0-1.8,0v.985H14.242V5.129a.9.9,0,0,0-1.8,0v.985H10.017V5.129a.9.9,0,0,0-1.8,0v.985H7.313a.934.934,0,0,0-.933.933V18.468c0,.1.084-.814.187-.814s.187.916.187.814v-8.4H19.122a.187.187,0,0,0,0-.373H6.753V7.046a.56.56,0,0,1,.56-.56h.906V7.38a.9.9,0,0,0,1.8,0V6.487h2.428V7.38a.9.9,0,0,0,1.8,0V6.487H16.67V7.38a.9.9,0,0,0,1.8,0V6.487H20.9V7.38a.9.9,0,0,0,1.8,0V6.487H23.6a.56.56,0,0,1,.56.56V9.7H20.614a.187.187,0,1,0,0,.373h3.545v11.7a.562.562,0,0,1-.56.56H7.313a.562.562,0,0,1-.56-.56V17.96a.187.187,0,1,0-.373,0ZM9.118,7.906a.526.526,0,0,1-.526-.526V5.129a.526.526,0,0,1,1.051,0V7.38A.526.526,0,0,1,9.118,7.906Zm4.225,0a.526.526,0,0,1-.526-.526V5.129a.526.526,0,0,1,1.051,0V7.38A.526.526,0,0,1,13.343,7.906Zm4.225,0a.526.526,0,0,1-.526-.526V5.129a.526.526,0,0,1,1.051,0V7.38A.526.526,0,0,1,17.569,7.906Zm4.225,0a.526.526,0,0,1-.526-.526V5.129a.526.526,0,0,1,1.051,0V7.38A.526.526,0,0,1,21.794,7.906Z" fill="none" stroke="#f47267" stroke-width="0.2"/>
      <path id="Path_7516" data-name="Path 7516" d="M49.887,96.616l-4.039,6.3a1.9,1.9,0,0,0,1.6,2.931h8.078a1.9,1.9,0,0,0,1.6-2.93l-4.039-6.3a1.9,1.9,0,0,0-3.2,0Zm5.641,8.853H47.449a1.53,1.53,0,0,1-1.288-2.356l4.039-6.3a1.53,1.53,0,0,1,2.575,0l4.039,6.3A1.53,1.53,0,0,1,55.527,105.469Z" transform="translate(-36.241 -84.682)" fill="none"/>
      <path id="Path_7517" data-name="Path 7517" d="M67.776,113.03a.634.634,0,0,0-1.068,0l-4.039,6.3a.634.634,0,0,0,.534.977h8.078a.634.634,0,0,0,.534-.977l0,0-1.215-1.9a.19.19,0,0,0-.257-.056.188.188,0,0,0-.057.258l1.218,1.9a.261.261,0,0,1-.22.4H63.2a.261.261,0,0,1-.22-.4l4.039-6.3a.261.261,0,0,1,.439,0h0l2.015,3.14a.187.187,0,0,0,.314-.2l-2.014-3.139Z" transform="translate(-51.994 -100.411)" fill="none"/>
      <path id="Path_7518" data-name="Path 7518" d="M119.991,143.279a.186.186,0,0,0,.056-.257.191.191,0,0,0-.257-.057.187.187,0,1,0,.2.314Zm-2.241-1.549a.654.654,0,1,0-1.308,0v1.317a.654.654,0,1,0,1.308,0Zm-.373,1.317a.281.281,0,1,1-.562,0V141.73a.281.281,0,0,1,.562,0Zm-.281,1.07a.655.655,0,0,0-.654.654v.045a.654.654,0,1,0,1.308,0v-.045A.655.655,0,0,0,117.1,144.118Zm.281.7a.281.281,0,0,1-.562,0v-.045a.281.281,0,1,1,.562,0Z" transform="translate(-101.848 -126.634)" fill="none"/>
      <g id="Group_9346" data-name="Group 9346" transform="translate(-967.251 -265.645)">
        <path id="Path_7559" data-name="Path 7559" d="M27.228,28.211V26L24,29.228l3.228,3.228V29.967h6.455v2.488l3.228-3.228L33.683,26v2.211Z" transform="translate(952.044 252.764)" fill="#f47267"/>
      </g>
    </g>
  </g>
</svg>
