<svg id="Group_4474" data-name="Group 4474" xmlns="http://www.w3.org/2000/svg" width="30" height="30" viewBox="0 0 30 30">
  <rect id="Rectangle_4487" data-name="Rectangle 4487" width="30" height="30" rx="4" fill="rgba(255,255,255,0)"/>
  <g id="Group_4393" data-name="Group 4393" transform="translate(6 6)">
    <path id="Path_1479" data-name="Path 1479" d="M0,0H18V18H0Z" fill="none"/>
    <g id="pencil-line_1_" data-name="pencil-line (1)" transform="translate(0 0)">
      <path id="Path_1434" data-name="Path 1434" d="M0,0H18V18H0Z" fill="none"/>
      <path id="Path_1435" data-name="Path 1435" d="M12.546,8.061,11.485,6.992,4.5,14.033V15.1H5.561l6.986-7.041Zm1.061-1.069,1.06-1.069-1.06-1.069-1.06,1.069ZM6.181,16.614H3V13.406L13.076,3.251a.746.746,0,0,1,1.061,0l2.122,2.138a.76.76,0,0,1,0,1.069L6.182,16.614Z" transform="translate(-0.739 -0.821)" fill="#667286"/>
    </g>
  </g>
</svg>
