<svg id="education_3_" data-name="education (3)" xmlns="http://www.w3.org/2000/svg" width="99.931" height="130.621" viewBox="0 0 99.931 130.621">
  <g id="Group_9690" data-name="Group 9690" transform="translate(12.419)">
    <path id="Path_6845" data-name="Path 6845" d="M22.968,39.638s-.849,1.274-4.034,1.486a8.914,8.914,0,0,1-2.972-.637,2.347,2.347,0,0,1-1.062-.849c0-6.794,2.123-15.074,2.76-17.834A2.23,2.23,0,0,1,16.6,19.894a2.561,2.561,0,0,1,1.7-2.335V13.1l1.274.637v3.822a2.3,2.3,0,0,1,1.7,2.335A2.23,2.23,0,0,1,20.208,21.8,97.817,97.817,0,0,1,22.331,32,48.4,48.4,0,0,1,22.968,39.638Z" transform="translate(-13.838 12.005)" fill="#bd9255"/>
    <path id="Path_6846" data-name="Path 6846" d="M69.98,44.982c-.212-1.486-1.062-2.972-2.76-2.972h-.425l-.212-.425a16.463,16.463,0,0,0,.212-1.911c.212-2.123.212-4.246.425-6.369,0-.849.212-1.7.212-2.76l-5.308-1.486a9.2,9.2,0,0,0-1.062-.212l-1.486-.212c-2.123-.425-4.246-.637-6.157-.849-3.609-.212-7.218-.212-10.828-.212h-.425a80.331,80.331,0,0,0-10.828.637c-.425,0-1.062.212-1.486.212h-.212a34.522,34.522,0,0,0-5.52,1.486l-1.486.637A59.981,59.981,0,0,0,23.06,36.7a34.845,34.845,0,0,0,.425,4.883H23.06a2.724,2.724,0,0,0-2.76,2.972v2.76a13.879,13.879,0,0,0,2.76,7.431c.849,1.274,1.7,1.274,2.972.849a12.037,12.037,0,0,1,1.7,2.76c1.911,4.034,4.883,8.917,10.4,11.04a19.669,19.669,0,0,0,12.1.849A20.413,20.413,0,0,0,60.426,62.6a21.035,21.035,0,0,0,2.335-3.609l1.274-2.548c.212-.425.212-.637.637-.849a9.2,9.2,0,0,0,1.062.212c.637,0,1.274-.637,1.7-1.062a13.271,13.271,0,0,0,2.76-7.431A10.416,10.416,0,0,0,69.98,44.982ZM63.61,39.25a60.977,60.977,0,0,1-1.486,12.314c0,.212-.212.425-.212.637-2.548,7.855-8.28,16.135-17.409,15.711a9.505,9.505,0,0,1-4.246-.849c-6.581-2.123-9.554-7.431-11.889-14.649a34.255,34.255,0,0,1-1.486-10.828V40.523H29a71.544,71.544,0,0,0,12.314-.849,37.492,37.492,0,0,0,4.246-.849,25.257,25.257,0,0,0,11.252-5.308,15.841,15.841,0,0,0,6.794,4.458.208.208,0,0,1,.212.212Zm3.4-18.683h0a15.9,15.9,0,0,0-.425-4.458,2.39,2.39,0,0,0-1.062-1.7c-.849-.425-1.486-1.062-2.335-1.486A22.5,22.5,0,0,0,56.817,10.8,56.835,56.835,0,0,0,42.167,9.739a59.981,59.981,0,0,0-6.157.425,26.131,26.131,0,0,0-9.766,2.972c-1.062.637-1.911,1.062-2.335,2.335-.849,3.185-.637,8.068-.849,11.252v.212c1.911-.637,4.034-1.274,5.945-1.7.637-.212,1.062-.212,1.7-.425a72.044,72.044,0,0,1,11.677-.849c3.609,0,7.431,0,11.04.212,2.76.212,5.308.637,8.068,1.062a4,4,0,0,1,1.7.425l3.609.849h0A51.781,51.781,0,0,0,67.007,20.567Z" transform="translate(-7.774 8.148)" fill="#bd9255"/>
    <path id="Path_6847" data-name="Path 6847" d="M89.132,21.922c-4.246,2.548-8.492,4.883-12.738,7.218l-.637.425v-.212h0V28.5a11.134,11.134,0,0,0-.425-3.609,4.005,4.005,0,0,0-2.123-2.972L73,21.709c-.637-.425-1.486-.849-2.123-1.274A24.745,24.745,0,0,0,63.867,18.1a54.661,54.661,0,0,0-12.1-1.062H48.581a49.526,49.526,0,0,0-6.369.637,30.944,30.944,0,0,0-10.828,3.4,5.657,5.657,0,0,0-3.4,3.822,18.1,18.1,0,0,0-.637,4.883l-1.062-.637-2.123-1.486-.212-.212L23.1,26.8l-.212-.212L19.92,25.106c-1.7-1.062-3.609-2.123-5.52-3.185a7.948,7.948,0,0,1,2.123-1.274c11.252-6.369,22.5-12.526,33.544-18.9a3.258,3.258,0,0,1,3.4,0C64.929,8.122,76.181,14.7,87.645,21.073A12.178,12.178,0,0,1,89.132,21.922Z" transform="translate(-14.4 -1.275)" fill="#bd9255"/>
  </g>
  <path id="Path_6848" data-name="Path 6848" d="M107.378,60.606c-2.548-5.52-7.855-9.129-12.738-12.1a79.359,79.359,0,0,0-18.9-8.492A1.6,1.6,0,0,1,74.9,39.8a.208.208,0,0,1-.212.212,3.587,3.587,0,0,0-.425,1.062c-1.274,2.76-2.76,5.52-4.034,8.28-.849,1.911-2.548,2.123-3.609.212-1.062-1.486-1.911-2.972-2.972-4.246-.212-.425-.637-.849-.849-1.274-.849-1.062-1.486-1.274-2.548-.212l-.425.425a1.38,1.38,0,0,1-2.548,0l-.425-.425c-.849-1.062-1.7-.849-2.548.212-.212.425-.637.849-.849,1.274-1.062,1.486-1.911,2.972-2.972,4.246-1.274,1.7-2.76,1.486-3.609-.212-1.274-2.76-2.76-5.52-4.034-8.28-.212-.425-.425-.637-.425-1.062A.208.208,0,0,0,42.2,39.8a1.6,1.6,0,0,0-.849.212,79.359,79.359,0,0,0-18.9,8.492c-4.883,2.972-10.4,6.581-12.738,12.1-1.274,2.972-1.274,6.581-1.062,9.978v2.972c0,1.911,1.486,2.76,2.76,3.609.212.212.425.212.637.425a36.624,36.624,0,0,0,5.732,3.185,24.908,24.908,0,0,1,2.335,1.062,93.433,93.433,0,0,0,20.594,5.308c3.185.425,6.157.849,9.129,1.062s5.732.425,8.492.425h.212c2.76,0,5.52-.212,8.492-.425s5.945-.637,9.129-1.062a90.38,90.38,0,0,0,20.594-5.308A24.9,24.9,0,0,0,99.1,80.775c1.911-.849,3.822-2.123,5.732-3.185.212-.212.425-.212.637-.425,1.486-.849,2.972-1.7,2.76-3.609V70.584C108.652,67.187,108.652,63.578,107.378,60.606Z" transform="translate(-8.55 41.991)" fill="#bd9255"/>
</svg>
