<svg xmlns="http://www.w3.org/2000/svg" xmlns:xlink="http://www.w3.org/1999/xlink" width="1440" height="639" viewBox="0 0 1440 639">
  <defs>
    <clipPath id="clip-path">
      <rect width="1440" height="639" fill="none"/>
    </clipPath>
    <clipPath id="clip-path-2">
      <rect width="1290" height="489" fill="none"/>
    </clipPath>
  </defs>
  <g id="Group_9706" data-name="Group 9706" transform="translate(0 -2419)">
    <g id="Repeat_Grid_2" data-name="Repeat Grid 2" transform="translate(0 2419)" opacity="0.8" clip-path="url(#clip-path)">
      <g transform="translate(0 -3121)">
        <rect id="Rectangle_5383" data-name="Rectangle 5383" width="150" height="150" transform="translate(0 3121)" fill="#bd9255" opacity="0.2"/>
      </g>
      <g transform="translate(300 -3121)">
        <rect id="Rectangle_5383-2" data-name="Rectangle 5383" width="150" height="150" transform="translate(0 3121)" fill="#bd9255" opacity="0.2"/>
      </g>
      <g transform="translate(600 -3121)">
        <rect id="Rectangle_5383-3" data-name="Rectangle 5383" width="150" height="150" transform="translate(0 3121)" fill="#bd9255" opacity="0.2"/>
      </g>
      <g transform="translate(900 -3121)">
        <rect id="Rectangle_5383-4" data-name="Rectangle 5383" width="150" height="150" transform="translate(0 3121)" fill="#bd9255" opacity="0.2"/>
      </g>
      <g transform="translate(1200 -3121)">
        <rect id="Rectangle_5383-5" data-name="Rectangle 5383" width="150" height="150" transform="translate(0 3121)" fill="#bd9255" opacity="0.2"/>
      </g>
      <g transform="translate(0 -2821)">
        <rect id="Rectangle_5383-6" data-name="Rectangle 5383" width="150" height="150" transform="translate(0 3121)" fill="#bd9255" opacity="0.2"/>
      </g>
      <g transform="translate(300 -2821)">
        <rect id="Rectangle_5383-7" data-name="Rectangle 5383" width="150" height="150" transform="translate(0 3121)" fill="#bd9255" opacity="0.2"/>
      </g>
      <g transform="translate(600 -2821)">
        <rect id="Rectangle_5383-8" data-name="Rectangle 5383" width="150" height="150" transform="translate(0 3121)" fill="#bd9255" opacity="0.2"/>
      </g>
      <g transform="translate(900 -2821)">
        <rect id="Rectangle_5383-9" data-name="Rectangle 5383" width="150" height="150" transform="translate(0 3121)" fill="#bd9255" opacity="0.2"/>
      </g>
      <g transform="translate(1200 -2821)">
        <rect id="Rectangle_5383-10" data-name="Rectangle 5383" width="150" height="150" transform="translate(0 3121)" fill="#bd9255" opacity="0.2"/>
      </g>
      <g transform="translate(0 -2521)">
        <rect id="Rectangle_5383-11" data-name="Rectangle 5383" width="150" height="150" transform="translate(0 3121)" fill="#bd9255" opacity="0.2"/>
      </g>
      <g transform="translate(300 -2521)">
        <rect id="Rectangle_5383-12" data-name="Rectangle 5383" width="150" height="150" transform="translate(0 3121)" fill="#bd9255" opacity="0.2"/>
      </g>
      <g transform="translate(600 -2521)">
        <rect id="Rectangle_5383-13" data-name="Rectangle 5383" width="150" height="150" transform="translate(0 3121)" fill="#bd9255" opacity="0.2"/>
      </g>
      <g transform="translate(900 -2521)">
        <rect id="Rectangle_5383-14" data-name="Rectangle 5383" width="150" height="150" transform="translate(0 3121)" fill="#bd9255" opacity="0.2"/>
      </g>
      <g transform="translate(1200 -2521)">
        <rect id="Rectangle_5383-15" data-name="Rectangle 5383" width="150" height="150" transform="translate(0 3121)" fill="#bd9255" opacity="0.2"/>
      </g>
    </g>
    <g id="Repeat_Grid_3" data-name="Repeat Grid 3" transform="translate(150 2569)" clip-path="url(#clip-path-2)">
      <g transform="translate(0 -3121)">
        <rect id="Rectangle_5383-16" data-name="Rectangle 5383" width="150" height="150" transform="translate(0 3121)" fill="#bd9255" opacity="0.2"/>
      </g>
      <g transform="translate(300 -3121)">
        <rect id="Rectangle_5383-17" data-name="Rectangle 5383" width="150" height="150" transform="translate(0 3121)" fill="#bd9255" opacity="0.2"/>
      </g>
      <g transform="translate(600 -3121)">
        <rect id="Rectangle_5383-18" data-name="Rectangle 5383" width="150" height="150" transform="translate(0 3121)" fill="#bd9255" opacity="0.2"/>
      </g>
      <g transform="translate(900 -3121)">
        <rect id="Rectangle_5383-19" data-name="Rectangle 5383" width="150" height="150" transform="translate(0 3121)" fill="#bd9255" opacity="0.2"/>
      </g>
      <g transform="translate(1200 -3121)">
        <rect id="Rectangle_5383-20" data-name="Rectangle 5383" width="150" height="150" transform="translate(0 3121)" fill="#bd9255" opacity="0.2"/>
      </g>
      <g transform="translate(0 -2821)">
        <rect id="Rectangle_5383-21" data-name="Rectangle 5383" width="150" height="150" transform="translate(0 3121)" fill="#bd9255" opacity="0.2"/>
      </g>
      <g transform="translate(300 -2821)">
        <rect id="Rectangle_5383-22" data-name="Rectangle 5383" width="150" height="150" transform="translate(0 3121)" fill="#bd9255" opacity="0.2"/>
      </g>
      <g transform="translate(600 -2821)">
        <rect id="Rectangle_5383-23" data-name="Rectangle 5383" width="150" height="150" transform="translate(0 3121)" fill="#bd9255" opacity="0.2"/>
      </g>
      <g transform="translate(900 -2821)">
        <rect id="Rectangle_5383-24" data-name="Rectangle 5383" width="150" height="150" transform="translate(0 3121)" fill="#bd9255" opacity="0.2"/>
      </g>
      <g transform="translate(1200 -2821)">
        <rect id="Rectangle_5383-25" data-name="Rectangle 5383" width="150" height="150" transform="translate(0 3121)" fill="#bd9255" opacity="0.2"/>
      </g>
    </g>
  </g>
</svg>
