<svg xmlns="http://www.w3.org/2000/svg" width="13.736" height="13.736" viewBox="0 0 13.736 13.736">
  <path id="facebook" d="M139.161,128a2.58,2.58,0,0,1,2.576,2.576v8.585a2.58,2.58,0,0,1-2.576,2.576h-1.681v-5.321h1.78l.268-2.075h-2.048v-1.324a1.146,1.146,0,0,1,.21-.751,1.043,1.043,0,0,1,.818-.25l1.091-.009v-1.851a11.99,11.99,0,0,0-1.592-.08,2.656,2.656,0,0,0-1.945.715,2.7,2.7,0,0,0-.729,2.021v1.529h-1.789v2.075h1.789v5.321h-4.758A2.58,2.58,0,0,1,128,139.161v-8.585A2.58,2.58,0,0,1,130.576,128Z" transform="translate(-128 -128)" fill="#bd9255"/>
</svg>
