<svg xmlns="http://www.w3.org/2000/svg" width="677.881" height="26.193" viewBox="0 0 677.881 26.193">
  <path id="_1684481897-flower-divider-horizontal-orange" data-name="1684481897-flower-divider-horizontal-orange" d="M551.7,9.275c.258-.107.5-.215.73-.323,4.337-2.083,5.093-6.12,4.267-6.311s-7.508.988-10.538,2.117-6,2.85-6.045,4.971a2.309,2.309,0,0,0,.362,1.091,22.376,22.376,0,0,0-4.376-.332c-12.947.012-25.9-.109-38.842-.076-13.064.035-26.126.176-39.186.309-14.661.149-29.317.37-43.98.5-11.427.1-22.863.1-34.292.182-6.343.046-12.682.195-19.025.239q-15.02.1-30.041.128-16.343.033-32.687,0c-11.484-.03-22.969-.125-34.453-.166-7.56-.027-15.122,0-22.684-.018-12.929-.035-25.857-.047-38.784-.134-2.248-.015-3.738.877-.418.834,5.007-.067,10.088-.117,15.174-.146,5.235-.03,10.477.028,15.717.043q24.22.066,48.435.128c13.659.034,27.32.137,40.977.073q36.635-.175,73.271-.518c15.375-.126,30.746-.328,46.122-.477q24.356-.236,48.711-.425Q506,10.859,521.884,10.9c4.5.008,9.007.128,13.5.265,3.514.108,4.333.327,4.46,1.611.136,1.393,1.78,4.438,4.627,6.121,4.946,2.925,15.479,5.139,15.875,5.127,1.2-.036,1.56-.337,1.481-1.058-.249-2.31-1.82-4.4-4.839-6.2-4.663-2.787-10.109-3.7-12.241-4.911a114.347,114.347,0,0,0,15.633,1.22,102,102,0,0,0,20.891-2.6c1.2-.033,1.418-.688.362-.917A86.687,86.687,0,0,0,562.6,8.307,87.716,87.716,0,0,0,551.7,9.275Zm-8.8,2.2q-.06.045-.124.089l-.122-.057Zm-371.871,1.2c2.786.077,5.237-1.473,1.576-1.432-17.354-.25-34.736-.2-52.106-.316-15.744-.1-31.481-.319-47.226-.4-12.221-.063-24.446,0-36.667.015-.877,0-1.78.009-2.626.088-1.624.154-3.15.367-2.965,1.238.2.943,1.859.891,3.535.861,6.327-.112,12.653-.256,18.985-.323,7.056-.074,14.118-.085,21.176-.106,8.227-.024,16.456-.064,24.681-.031,10.735.044,21.468.155,32.2.233q17.436.128,34.883.251c.588,0,3.98-.112,4.55-.077Zm233.887-1.963c3.743-.2,5.21-1.852,2.047-2.119s-8.865-.1-13.333-.094c-11.972.005-23.944-.037-35.914-.034-5.97,0-11.94.1-17.906.087q-17.09-.038-34.179-.161c-13.433-.1-55.274.528-59.18.44-15.918-.354-31.827-.32-47.741-.025-1.009.018-2.022-.014-3.483-.027,2.646-2.376.384-4.505-1.583-5.722C192.038,2.072,186.71.318,185.1.516s-3.555,4.6,1.606,6.988a63.345,63.345,0,0,0-12.942-.8c-4.3.177-13.114,1.225-13.114,1.756,0,.464,7.741,1.748,11.42,1.954a93.484,93.484,0,0,0,14.362-.355s-5.6,1.235-7.895,3.131c-1.714,1.727-2.39,5.055-1.418,5.171,2.255.269,11.067-1.833,15.389-4.526,2.2-1.374,1.886-3.022,2.11-4.023,3.046-.032,6.065-.1,9.084-.09q22.1.055,44.2.141c1.753.005,3.507,0,5.262.005q27.171.079,54.349.153c5.547.011,11.1-.118,16.644-.062,12.981.132,25.961.34,38.94.507,2.042.026,4.091-.016,6.135,0q14.865.145,29.729.3c1.9.018,3.677.066,5.954-.056Zm-158,6.908c-4.084.478-6.791,2.439-3.476,2.885s23.921-.354,35.887-.5c8.254-.1,16.493-.39,24.754-.395,10.457,0,20.914.094,31.371.108q26.581.036,53.166.018,21.774-.016,43.551-.1,25.7-.079,51.4-.181,20.913-.062,41.818-.084c2.4,0,5.179.2,5.988-.136s-.129-.8-1.737-.773c-6.816.1-13.641.214-20.461.233-6.667.019-13.333-.08-20-.106-11.038-.044-22.078-.047-33.116-.109s-22.063-.2-33.1-.264c-7.546-.041-15.1.007-22.646-.006q-21.113-.041-42.223-.1c-4.8-.011-9.6.031-14.394.009-10.873-.05-39.593-.087-43.071-.137-10.715-.15-21.425-.358-32.137-.528-5.486-.087-10.972-.173-16.463-.188a43.331,43.331,0,0,0-5.111.361Zm396.565-.452c-.9.088-2.289,2.659,3.211,5.518s15.082,4.237,15.9,3.969c.685-.225.76-4.389-4.089-6.388a48.367,48.367,0,0,0-15.027-3.1Zm19.76,1.218c9.821,0,14.962-1.6,14.683-1.847-.473-.419-6.49-1.533-15.029-1.533-5.8,0-13.069,1.067-13.089,1.429-.018.3,6.818,1.952,13.435,1.952Zm-22.065-1.339c.782-.489-.968-.93-2.544-.914-3.758.04-7.515.128-11.271.143-9.539.044-19.078-.021-28.609.107-9.668.129-19.324.43-28.985.679-1.357.035-3.437.027-3.951.156a.546.546,0,0,0-.19.953,17.806,17.806,0,0,0,4.417.175c17.852-.975,35.746-1.132,53.666-.951,4.331.044,8.666-.115,13-.109,1.642,0,3.682.254,4.466-.237Zm-418.443-.913a4.984,4.984,0,0,0-3.146.891c-.292.51-.267,1.141,1.651,1.327s4.147-.426,3.8-1.358c-.127-.333-.893-.85-2.307-.861Zm6.524,2.357c-1.954.351-1.375,1.041-.923,1.566.791.914,3.236.541,4.1.3s1.479-.867.758-1.353a6.206,6.206,0,0,0-3.939-.508ZM10.291,12.727c1.918.188,4.143-.428,3.8-1.358-.122-.333-.889-.85-2.307-.861a4.992,4.992,0,0,0-3.148.891C8.346,11.908,8.371,12.539,10.291,12.727Zm11.2-.254c.868-.246,1.479-.866.758-1.353a6.206,6.206,0,0,0-3.939-.508c-1.954.351-1.375,1.042-.923,1.567.792.913,3.236.539,4.1.294Zm-16.877,0c.868-.246,1.479-.866.758-1.353a6.206,6.206,0,0,0-3.939-.508c-1.954.351-1.375,1.042-.923,1.567.792.913,3.236.539,4.1.294ZM427.134,9.381a4.991,4.991,0,0,0,3.148-.892c.292-.509.265-1.141-1.655-1.327s-4.145.426-3.8,1.358C424.95,8.853,425.719,9.37,427.134,9.381Zm-9.335-.1c1.952-.35,1.375-1.04.923-1.565-.792-.914-3.236-.541-4.1-.3s-1.479.866-.758,1.353A6.2,6.2,0,0,0,417.8,9.276Zm225.045,6.862a37.945,37.945,0,0,0,10.848-2.679c4.335-2.084,5.091-6.122,4.267-6.312s-7.51.988-10.534,2.117-6,2.85-6.049,4.97a4.431,4.431,0,0,0,.726,1.758,1.58,1.58,0,0,0,.742.146Z" transform="translate(-0.062 -0.501)" fill="#bd9255" fill-rule="evenodd"/>
</svg>
