<svg xmlns="http://www.w3.org/2000/svg" width="124" height="124" viewBox="0 0 124 124">
  <g id="Group_9827" data-name="Group 9827" transform="translate(-165 -310)">
    <g id="Path_6940" data-name="Path 6940" transform="translate(170 315)" fill="#fff">
      <path d="M 57 116.5 C 48.96865081787109 116.5 41.17621612548828 114.9264831542969 33.83914947509766 111.8231658935547 C 30.3129825592041 110.3317337036133 26.91220092773438 108.4858703613281 23.73123359680176 106.3368530273438 C 20.58115005493164 104.2087020874023 17.61901664733887 101.7647323608398 14.92714977264404 99.07285308837891 C 12.23526668548584 96.3809814453125 9.791299819946289 93.41885375976562 7.663149833679199 90.26876831054688 C 5.514133453369141 87.08779907226562 3.668266773223877 83.68701934814453 2.176833391189575 80.16085052490234 C -0.9264833331108093 72.82378387451172 -2.5 65.03134918212891 -2.5 57 C -2.5 48.96865081787109 -0.9264833331108093 41.17621612548828 2.176833391189575 33.83914947509766 C 3.668266773223877 30.3129825592041 5.514133453369141 26.91220092773438 7.663149833679199 23.73123359680176 C 9.791299819946289 20.58115005493164 12.23526668548584 17.61901664733887 14.92714977264404 14.92714977264404 C 17.61901664733887 12.23526668548584 20.58115005493164 9.791299819946289 23.73123359680176 7.663149833679199 C 26.91220092773438 5.514133453369141 30.3129825592041 3.668266773223877 33.83914947509766 2.176833391189575 C 41.17621612548828 -0.9264833331108093 48.96865081787109 -2.5 57 -2.5 C 65.03134918212891 -2.5 72.82378387451172 -0.9264833331108093 80.16085052490234 2.176833391189575 C 83.68701934814453 3.668266773223877 87.08779907226562 5.514133453369141 90.26876831054688 7.663149833679199 C 93.41885375976562 9.791299819946289 96.3809814453125 12.23526668548584 99.07285308837891 14.92714977264404 C 101.7647323608398 17.61901664733887 104.2087020874023 20.58115005493164 106.3368530273438 23.73123359680176 C 108.4858703613281 26.91220092773438 110.3317337036133 30.3129825592041 111.8231658935547 33.83914947509766 C 114.9264831542969 41.17621612548828 116.5 48.96865081787109 116.5 57 C 116.5 65.03134918212891 114.9264831542969 72.82378387451172 111.8231658935547 80.16085052490234 C 110.3317337036133 83.68701934814453 108.4858703613281 87.08779907226562 106.3368530273438 90.26876831054688 C 104.2087020874023 93.41885375976562 101.7647323608398 96.3809814453125 99.07285308837891 99.07285308837891 C 96.3809814453125 101.7647323608398 93.41885375976562 104.2087020874023 90.26876831054688 106.3368530273438 C 87.08779907226562 108.4858703613281 83.68701934814453 110.3317337036133 80.16085052490234 111.8231658935547 C 72.82378387451172 114.9264831542969 65.03134918212891 116.5 57 116.5 Z" stroke="none"/>
      <path d="M 57 0 C 25.51976013183594 0 0 25.51976013183594 0 57 C 0 88.48023986816406 25.51976013183594 114 57 114 C 88.48023986816406 114 114 88.48023986816406 114 57 C 114 25.51976013183594 88.48023986816406 0 57 0 M 57 -5 C 65.36773681640625 -5 73.48783874511719 -3.360038757324219 81.13473510742188 -0.1256790161132812 C 84.80956268310547 1.428642272949219 88.35356140136719 3.352203369140625 91.66828155517578 5.591583251953125 C 94.95021820068359 7.808822631835938 98.03623962402344 10.35500335693359 100.8406219482422 13.15937805175781 C 103.6450042724609 15.96376037597656 106.1911773681641 19.04978179931641 108.4084167480469 22.33171844482422 C 110.6477966308594 25.64643859863281 112.5713577270508 29.19043731689453 114.1256790161133 32.86525726318359 C 117.3600387573242 40.51216125488281 119 48.63226318359375 119 57 C 119 65.36773681640625 117.3600387573242 73.48783874511719 114.1256790161133 81.13473510742188 C 112.5713577270508 84.80956268310547 110.6477966308594 88.35356140136719 108.4084167480469 91.66828155517578 C 106.1911773681641 94.95021820068359 103.6450042724609 98.03623962402344 100.8406219482422 100.8406219482422 C 98.03623962402344 103.6450042724609 94.95021820068359 106.1911773681641 91.66828155517578 108.4084167480469 C 88.35356140136719 110.6477966308594 84.80956268310547 112.5713577270508 81.13473510742188 114.1256790161133 C 73.48783874511719 117.3600387573242 65.36773681640625 119 57 119 C 48.63226318359375 119 40.51216125488281 117.3600387573242 32.86525726318359 114.1256790161133 C 29.19043731689453 112.5713577270508 25.64643859863281 110.6477966308594 22.33171844482422 108.4084167480469 C 19.04978179931641 106.1911773681641 15.96376037597656 103.6450042724609 13.15937805175781 100.8406219482422 C 10.35500335693359 98.03623962402344 7.808822631835938 94.95021820068359 5.591583251953125 91.66828155517578 C 3.352203369140625 88.35356140136719 1.428642272949219 84.80956268310547 -0.1256790161132812 81.13473510742188 C -3.360038757324219 73.48783874511719 -5 65.36773681640625 -5 57 C -5 48.63226318359375 -3.360038757324219 40.51216125488281 -0.1256790161132812 32.86525726318359 C 1.428642272949219 29.19043731689453 3.352203369140625 25.64643859863281 5.591583251953125 22.33171844482422 C 7.808822631835938 19.04978179931641 10.35500335693359 15.96376037597656 13.15937805175781 13.15937805175781 C 15.96376037597656 10.35500335693359 19.04978179931641 7.808822631835938 22.33171844482422 5.591583251953125 C 25.64643859863281 3.352203369140625 29.19043731689453 1.428642272949219 32.86525726318359 -0.1256790161132812 C 40.51216125488281 -3.360038757324219 48.63226318359375 -5 57 -5 Z" stroke="none" fill="#bd9255"/>
    </g>
    <path id="Layer_31" data-name="Layer 31" d="M52.128,2.5A49.679,49.679,0,0,0,2.5,52.128c2.725,65.846,96.548,65.812,99.257,0A49.679,49.679,0,0,0,52.128,2.5ZM86.935,79.886a34.858,34.858,0,0,0-24.192-32.57C77.6,36.987,70.415,13.435,52.128,13.334S26.658,36.987,41.513,47.317a34.858,34.858,0,0,0-24.192,32.62C-5.945,51.354,14.949,7.379,52.128,7.547c37.179-.168,58.073,43.807,34.807,72.39Z" transform="translate(174.371 320)" fill="#d5d5d5" opacity="0.56"/>
  </g>
</svg>
