<svg xmlns="http://www.w3.org/2000/svg" width="28.787" height="28.787" viewBox="0 0 28.787 28.787">
  <g id="Group_1637" data-name="Group 1637" transform="translate(-1646.267 -546.162)">
    <path id="Path_1432" data-name="Path 1432" d="M20.944,22a11.558,11.558,0,0,1-6.818,2.364C6.091,24.365,1.5,15.182,1.5,15.182A21.177,21.177,0,0,1,7.308,8.364m4.408-2.089A10.468,10.468,0,0,1,14.126,6c8.035,0,12.626,9.182,12.626,9.182a21.234,21.234,0,0,1-2.479,3.661m-7.713-1.228a3.443,3.443,0,1,1-4.867-4.867" transform="translate(1646.535 545.374)" fill="none" stroke="#8386d9" stroke-linecap="round" stroke-linejoin="round" stroke-width="2.5"/>
    <path id="Path_1433" data-name="Path 1433" d="M1.5,1.5,26.752,26.752" transform="translate(1646.535 546.43)" fill="none" stroke="#8386d9" stroke-linecap="round" stroke-linejoin="round" stroke-width="2.5"/>
  </g>
</svg>
