<svg xmlns="http://www.w3.org/2000/svg" width="14.631" height="14.631" viewBox="0 0 14.631 14.631">
  <path id="instagram" d="M9.315,7.5A1.814,1.814,0,1,0,11.13,9.315,1.814,1.814,0,0,0,9.315,7.5ZM16.58,5.709a4.777,4.777,0,0,0-.307-1.653,2.926,2.926,0,0,0-1.7-1.7,4.777,4.777,0,0,0-1.653-.307C11.978,2,11.7,2,9.315,2s-2.663,0-3.607.051a4.777,4.777,0,0,0-1.653.307,2.926,2.926,0,0,0-1.7,1.7,4.777,4.777,0,0,0-.307,1.653C2,6.653,2,6.931,2,9.315s0,2.663.051,3.607a5.018,5.018,0,0,0,.307,1.661,2.882,2.882,0,0,0,.666,1.024,2.846,2.846,0,0,0,1.031.666,4.777,4.777,0,0,0,1.653.307c.944.051,1.222.051,3.607.051s2.663,0,3.607-.051a4.777,4.777,0,0,0,1.653-.307,2.846,2.846,0,0,0,1.031-.666,2.882,2.882,0,0,0,.666-1.024,4.828,4.828,0,0,0,.307-1.661c.051-.944.051-1.222.051-3.607s0-2.663-.051-3.607Zm-1.858,5.852a4.192,4.192,0,0,1-.285,1.317,2.824,2.824,0,0,1-1.558,1.558,4.192,4.192,0,0,1-1.324.256H7.077a4.192,4.192,0,0,1-1.324-.256,2.723,2.723,0,0,1-1.558-1.558,4.016,4.016,0,0,1-.249-1.324c0-.578,0-.732,0-2.239V7.077a4.016,4.016,0,0,1,.249-1.324,2.568,2.568,0,0,1,.629-.958,2.626,2.626,0,0,1,.929-.6,4.192,4.192,0,0,1,1.324-.256h4.477a4.192,4.192,0,0,1,1.324.256,2.723,2.723,0,0,1,1.558,1.558,4.192,4.192,0,0,1,.256,1.324c0,.578,0,.732,0,2.239s.051,1.661.029,2.239Zm-1.17-5.443A1.741,1.741,0,0,0,12.52,5.087a2.926,2.926,0,0,0-1.01-.161H7.121a2.926,2.926,0,0,0-1.01.19,1.741,1.741,0,0,0-1.031.995,3.124,3.124,0,0,0-.154,1.01V11.51a3.124,3.124,0,0,0,.19,1.01,1.741,1.741,0,0,0,1.031,1.031,3.124,3.124,0,0,0,.973.19H11.51a2.926,2.926,0,0,0,1.01-.19,1.741,1.741,0,0,0,1.031-1.031,2.926,2.926,0,0,0,.19-1.01V7.121a2.765,2.765,0,0,0-.19-1.01ZM9.315,12.11A2.787,2.787,0,0,1,6.528,9.315h0A2.794,2.794,0,1,1,9.315,12.11Zm2.926-5.04a.658.658,0,0,1,0-1.309h0a.658.658,0,0,1,0,1.309Z" transform="translate(-2 -2)" fill="#bd9255"/>
</svg>
