<svg xmlns="http://www.w3.org/2000/svg" width="137.847" height="130.622" viewBox="0 0 137.847 130.622">
  <g id="law_1_" data-name="law (1)" transform="translate(0 0)">
    <path id="law_1_2" data-name="law (1)" d="M38.606,55.328a9.775,9.775,0,0,1,0-13.831L69.713,10.414A9.775,9.775,0,0,1,86.4,17.3a10.239,10.239,0,0,1-.415,2.859h0a2.574,2.574,0,0,1-.269.758,9.775,9.775,0,0,1-2.15,3.226L52.437,55.328a9.775,9.775,0,0,1-13.831,0ZM70.4,75.366l-57.475,57.4a4.823,4.823,0,1,1-6.818-6.818l57.45-57.524a29.74,29.74,0,0,1,6.842,6.94Zm9.7,7.6-.342.367A36.191,36.191,0,0,0,55.565,59.091l.342-.318L86.99,27.69c.244-.244.489-.513.709-.782a35.286,35.286,0,0,0,24.265,24.265l-.782.709Zm51.243-20.722a9.775,9.775,0,0,1-2.883,6.916L97.376,100.267a9.779,9.779,0,0,1-16.2-9.97,5.1,5.1,0,0,1,.2-.562,9.139,9.139,0,0,1,2.175-3.3l31.108-31.108A9.457,9.457,0,0,1,118,53.178a3.494,3.494,0,0,1,.66-.22h0a9.384,9.384,0,0,1,2.981-.464,9.775,9.775,0,0,1,9.775,9.775Zm3.763,61.262H76.458a7.331,7.331,0,1,0,0,14.662h58.648a7.331,7.331,0,0,0,0-14.662Z" transform="translate(-4.59 -7.547)" fill="#bd9255"/>
  </g>
</svg>
