<svg xmlns="http://www.w3.org/2000/svg" width="21.512" height="27.176" viewBox="0 0 21.512 27.176">
  <path id="Icon_material-lock-outline" data-name="Icon material-lock-outline" d="M16.756,22.205a2.59,2.59,0,1,0-2.689-2.588A2.648,2.648,0,0,0,16.756,22.205Zm8.067-11.647H23.478V7.97A6.6,6.6,0,0,0,16.756,1.5a6.6,6.6,0,0,0-6.722,6.47v2.588H8.689A2.648,2.648,0,0,0,6,13.147V26.088a2.648,2.648,0,0,0,2.689,2.588H24.823a2.648,2.648,0,0,0,2.689-2.588V13.147A2.648,2.648,0,0,0,24.823,10.559ZM12.588,7.97a4.171,4.171,0,0,1,8.336,0v2.588H12.588ZM24.823,26.088H8.689V13.147H24.823Z" transform="translate(-6 -1.5)" fill="#3d44ea" opacity="0.592"/>
</svg>
