<svg xmlns="http://www.w3.org/2000/svg" width="14.1" height="16.666" viewBox="0 0 14.1 16.666">
  <g id="_14" data-name="14" transform="translate(0.05 0.05)">
    <path id="Path_5182" data-name="Path 5182" d="M19.8,7.008,15.6,3.185a.662.662,0,0,0-.231-.134A.759.759,0,0,0,15.1,3H6.7a.671.671,0,0,0-.7.637V18.929a.671.671,0,0,0,.7.637H19.3a.671.671,0,0,0,.7-.637V7.46A.609.609,0,0,0,19.8,7.008Zm-4-1.835L18.313,7.46H15.8ZM7.4,18.292V4.274h7V8.1a.671.671,0,0,0,.7.637h3.5v9.558Z" transform="translate(-6 -3)" fill="#fff" stroke="#fff" stroke-width="0.1"/>
    <path id="Path_5184" data-name="Path 5184" d="M17.033,18H10.639a.809.809,0,0,0,0,1.582h6.393a.809.809,0,0,0,0-1.582Z" transform="translate(-6.836 -9.848)" fill="#fff" stroke="#fff" stroke-width="0.1"/>
    <path id="Path_5185" data-name="Path 5185" d="M17.033,22H10.639a.809.809,0,0,0,0,1.582h6.393a.809.809,0,0,0,0-1.582Z" transform="translate(-6.836 -10.317)" fill="#fff" stroke="#fff" stroke-width="0.1"/>
  </g>
</svg>
