<svg id="_icons" xmlns="http://www.w3.org/2000/svg" width="19.157" height="19.694" viewBox="0 0 19.157 19.694">
  <g id="Group_5267" data-name="Group 5267">
    <path id="Path_3589" data-name="Path 3589" d="M12.678,20.228a7.527,7.527,0,0,1,0-15.054,7.726,7.726,0,0,1,5.591,2.473l-1.936.323a1.115,1.115,0,0,0-.86,1.29,1.047,1.047,0,0,0,1.075.86h.215l4.516-.86a1.115,1.115,0,0,0,.86-1.29l-.86-4.409a1.1,1.1,0,1,0-2.151.43l.323,1.828a9.887,9.887,0,0,0-6.774-2.8A9.758,9.758,0,0,0,4.29,7.863h0a9.718,9.718,0,0,0,0,9.678h0a9.371,9.371,0,0,0,3.548,3.548h0a9.6,9.6,0,0,0,4.839,1.29,1.089,1.089,0,0,0,.968-.645.914.914,0,0,0,0-.86A1.089,1.089,0,0,0,12.678,20.228Z" transform="translate(-3 -2.685)" fill="#2863ff"/>
    <circle id="Ellipse_2756" data-name="Ellipse 2756" cx="0.901" cy="0.901" r="0.901" transform="translate(17.124 9.297)" fill="#2863ff"/>
    <circle id="Ellipse_2757" data-name="Ellipse 2757" cx="1.075" cy="1.075" r="1.075" transform="matrix(0.5, -0.866, 0.866, 0.5, 15.643, 14.738)" fill="#2863ff"/>
    <circle id="Ellipse_2758" data-name="Ellipse 2758" cx="1.075" cy="1.075" r="1.075" transform="matrix(0.866, -0.5, 0.5, 0.866, 12.494, 17.046)" fill="#2863ff"/>
    <path id="Path_3590" data-name="Path 3590" d="M13.151,11.871v-2.8A1.016,1.016,0,0,0,12.075,8,1.016,1.016,0,0,0,11,9.075V12.3a.976.976,0,0,0,.323.753L13.473,15.2a1.039,1.039,0,0,0,1.505,0,1.039,1.039,0,0,0,0-1.505Z" transform="translate(-2.398 -2.284)" fill="#2863ff"/>
  </g>
</svg>
