<svg xmlns="http://www.w3.org/2000/svg" width="20.66" height="23.142" viewBox="0 0 20.66 23.142">
  <g id="Group_9767" data-name="Group 9767" transform="translate(-20.6 -10.6)">
    <g id="manager" transform="translate(21 24.712)">
      <path id="Path_6932" data-name="Path 6932" d="M8.137,22H4.827A.827.827,0,0,0,4,22.827H4v4.965H4a.827.827,0,0,0,.827.827h3.31l.827-.827V22.827Z" transform="translate(-4 -19.99)" fill="none" stroke="#667286" stroke-width="0.8"/>
      <path id="Path_6933" data-name="Path 6933" d="M24.721,21.622h0a.845.845,0,0,1-.306.6l-5.809,4.692h0a.851.851,0,0,1-.339.157l-4.948,1.109h0a1.489,1.489,0,0,0-.182.017H9v-6.62l.348-.546h0a2.189,2.189,0,0,1,.753-.778h0a2.487,2.487,0,0,1,1.241-.331h3.616a2.069,2.069,0,0,1,2.027,2.482h.041l3.641-2.424h0a2.462,2.462,0,0,1,2.846.083h0a1.837,1.837,0,0,1,.273.232l.7.7h0A.847.847,0,0,1,24.721,21.622Z" transform="translate(-4.863 -19.571)" fill="none" stroke="#667286" stroke-width="0.8"/>
      <path id="Path_6934" data-name="Path 6934" d="M17.675,23h0A2.4,2.4,0,0,1,15.4,24.655H13.827a.827.827,0,0,1,0-1.655Z" transform="translate(-5.553 -20.163)" fill="none" stroke="#667286" stroke-width="0.8"/>
    </g>
    <path id="Path_6935" data-name="Path 6935" d="M18.888,4.7a5.792,5.792,0,1,1-8.191,0,5.792,5.792,0,0,1,8.191,0" transform="translate(16.138 8)" fill="none" stroke="#667286" stroke-width="0.8"/>
    <g id="Group_9740" data-name="Group 9740" transform="translate(28.858 12.655)">
      <path id="Path_6937" data-name="Path 6937" d="M17.637,10.3h0A1.986,1.986,0,0,0,15.651,8.31h-.165a.331.331,0,0,1-.331-.331h0a.323.323,0,0,1,.113-.248h0a.344.344,0,0,1,.26-.078l1.168.161h0a.827.827,0,0,0,.227-1.638l-.527-.07V5.827h0a.827.827,0,1,0-1.655,0v.325h0a1.977,1.977,0,0,0,.745,3.812h.165a.331.331,0,0,1,.331.331q0,.008,0,.017h0a.331.331,0,0,1-.335.327l-.034,0-1.185-.146h0a.827.827,0,0,0-.2,1.642l.515.065v.248h0a.827.827,0,1,0,1.655,0v-.3h0A1.968,1.968,0,0,0,17.637,10.3Z" transform="translate(-13.498 -5)" fill="none" stroke="#667286" stroke-width="0.8"/>
    </g>
  </g>
</svg>
