<svg id="Group_4720" data-name="Group 4720" xmlns="http://www.w3.org/2000/svg" width="20.611" height="20.611" viewBox="0 0 20.611 20.611">
  <rect id="Rectangle_3276" data-name="Rectangle 3276" width="20.611" height="20.611" fill="none"/>
  <path id="Icon_ionic-ios-search" data-name="Icon ionic-ios-search" d="M21.73,20.467l-4.849-4.833A6.794,6.794,0,0,0,18.4,11.353a6.952,6.952,0,1,0-6.951,6.864,6.981,6.981,0,0,0,4.381-1.533l4.817,4.8a.753.753,0,0,0,1.053.027A.735.735,0,0,0,21.73,20.467ZM11.451,16.742a5.458,5.458,0,0,1-3.859-1.578,5.332,5.332,0,0,1,0-7.613,5.508,5.508,0,0,1,7.718,0,5.332,5.332,0,0,1,0,7.613A5.458,5.458,0,0,1,11.451,16.742Z" transform="translate(-2.912 -2.798)" fill="#a0a0a0"/>
</svg>
