<svg id="spirituality_4_" data-name="spirituality (4)" xmlns="http://www.w3.org/2000/svg" width="134.905" height="130.621" viewBox="0 0 134.905 130.621">
  <path id="Path_6882" data-name="Path 6882" d="M15.674,44.417a7.425,7.425,0,0,0,4.48,1.614,4.662,4.662,0,0,0,3.751-1.662,4.453,4.453,0,0,0,.869-3.335,7.1,7.1,0,0,0-2.809-4.617c-2.8-2.171-6.5-2.149-8.231.049a4.453,4.453,0,0,0-.869,3.335A7.1,7.1,0,0,0,15.674,44.417ZM29.3,32.36a3.958,3.958,0,0,0,4.13-4.095A6.448,6.448,0,0,0,31.4,23.787c-2.3-2.273-5.648-2.652-7.473-.844A4.1,4.1,0,0,0,22.76,25.9a6.448,6.448,0,0,0,2.022,4.478A6.56,6.56,0,0,0,29.3,32.36ZM11.539,68.277a7.809,7.809,0,0,0,4.71,1.7,4.877,4.877,0,0,0,3.925-1.739,4.655,4.655,0,0,0,.907-3.487A7.458,7.458,0,0,0,18.129,59.9c-2.944-2.279-6.817-2.262-8.635.041a4.656,4.656,0,0,0-.907,3.487A7.454,7.454,0,0,0,11.539,68.277ZM1.17,99.49A4.1,4.1,0,0,0,0,102.443a6.448,6.448,0,0,0,2.022,4.478,6.561,6.561,0,0,0,4.513,1.987,4.13,4.13,0,0,0,2.96-1.143,4.1,4.1,0,0,0,1.17-2.952,6.448,6.448,0,0,0-2.022-4.478C6.347,98.062,3,97.683,1.17,99.49Z" transform="translate(0 -15.965)" fill="#bd9255"/>
  <path id="Path_6883" data-name="Path 6883" d="M145.272,68.948c-.84-5.275-6.163-7.417-11.31-9.489-4.447-1.79-9.046-3.641-10.439-7.425-1.083-2.942.22-5.842,1.48-8.647,1.4-3.125,2.857-6.357.822-9.475-1.6-2.444-4.045-2.914-6.415-3.368-2.167-.415-4.213-.807-5.7-2.681-2.133-2.7-1.362-6.251-.617-9.689.7-3.252,1.37-6.324-.681-8.32-2.367-2.3-5.909-.789-10.393,1.129-1.333.57-2.811,1.2-4.4,1.8C96.446,6.638,93.156,0,83.946,0s-12.5,6.638-13.676,12.784c-1.59-.6-3.068-1.231-4.4-1.8C61.385,9.065,57.843,7.55,55.476,9.854c-2.052,2-1.386,5.068-.681,8.32.745,3.438,1.516,6.994-.617,9.689-1.483,1.874-3.529,2.266-5.7,2.681-2.37.454-4.82.923-6.415,3.368-2.035,3.119-.583,6.35.822,9.475,1.26,2.8,2.564,5.7,1.481,8.647-1.393,3.785-5.992,5.635-10.439,7.425-5.148,2.072-10.471,4.214-11.31,9.489a9.618,9.618,0,0,0-.008,2.659c.455,4.708,3.195,7.411,5.611,9.8,1.9,1.878,3.546,3.5,4.051,5.845.586,2.722-.655,4.7-1.855,6.6-1.021,1.624-2.077,3.3-1.772,5.273.248,1.6,1.377,3.071,3.354,4.376a11.852,11.852,0,0,0-2.161,6.815,11.983,11.983,0,0,0,9.724,11.71l45.118,8.6a8.791,8.791,0,0,0,3.774-.852l39.875-7.743a11.983,11.983,0,0,0,9.724-11.71,11.852,11.852,0,0,0-2.161-6.815c1.977-1.305,3.1-2.773,3.354-4.376.306-1.97-.751-3.649-1.772-5.273-1.2-1.908-2.442-3.882-1.856-6.6.505-2.346,2.148-3.967,4.051-5.845,2.417-2.385,5.156-5.089,5.611-9.8A9.651,9.651,0,0,0,145.272,68.948ZM73.414,9.4A11.225,11.225,0,0,1,77.64,3.816a6.946,6.946,0,0,0-.791,3.224,7.1,7.1,0,0,0,14.195,0,6.949,6.949,0,0,0-.791-3.224A11.228,11.228,0,0,1,94.479,9.4c1.645,4.244,1.656,9.384,1.656,11.9-.4,3.942-1.259,7.314-2.3,9.028C92.348,32.765,88.3,36.2,83.946,36.2s-8.4-3.435-9.886-5.874c-1.043-1.714-1.9-5.086-2.3-9.028C71.758,18.787,71.77,13.646,73.414,9.4Zm33.768,74.454a6.522,6.522,0,0,1-.812-1.831l-4.515-16.769a1.071,1.071,0,0,0-2.1.278V94.2a4.911,4.911,0,0,0,4.594,4.872l10.516.694,3.886,6.03-34.8,7.07-34.8-7.07,3.886-6.03,10.516-.694A4.911,4.911,0,0,0,68.142,94.2V65.535a1.071,1.071,0,0,0-2.1-.278L61.522,82.025a6.513,6.513,0,0,1-.812,1.831l-13.2,20.55a4.669,4.669,0,0,1-6.359,1.423,4.54,4.54,0,0,1-2.056-2.867,4.5,4.5,0,0,1,.6-3.442L50.418,82.7a8.643,8.643,0,0,0,1.116-2.618L57.248,56.5a9.124,9.124,0,0,1,5.422-6.272L75.011,45.2a6.346,6.346,0,0,0,3.978-5.889V37.214a11.452,11.452,0,0,0,9.912,0v2.092a6.346,6.346,0,0,0,3.978,5.889l12.341,5.033a9.125,9.125,0,0,1,5.423,6.272l5.714,23.579a8.652,8.652,0,0,0,1.116,2.618L128.2,99.52a4.538,4.538,0,0,1-1.457,6.309,4.669,4.669,0,0,1-6.359-1.423Zm-18.258,43.1a6.673,6.673,0,0,1-5.536,1.4l-43.417-8.431a9.76,9.76,0,0,1-3.135-18.036,6.734,6.734,0,0,0,6.748,6.773,6.883,6.883,0,0,0,3.671-1.063L86,115.47a6.613,6.613,0,0,1,5.308,6.437A6.524,6.524,0,0,1,88.924,126.953Zm46.988-16.637a9.839,9.839,0,0,1-7.99,9.608l-36.074,7.005a8.635,8.635,0,0,0,1.607-5.022,8.744,8.744,0,0,0-4.871-7.8l32.054-6.512a6.881,6.881,0,0,0,3.672,1.063,6.753,6.753,0,0,0,3.563-1.011,6.7,6.7,0,0,0,3.184-5.762A9.791,9.791,0,0,1,135.912,110.316Zm-9.288-85.247a4.453,4.453,0,0,0,.869,3.335,4.662,4.662,0,0,0,3.751,1.662,7.426,7.426,0,0,0,4.48-1.614,7.1,7.1,0,0,0,2.809-4.617,4.453,4.453,0,0,0-.869-3.335c-1.736-2.2-5.428-2.22-8.231-.049A7.1,7.1,0,0,0,126.625,25.069ZM122.1,16.4a6.562,6.562,0,0,0,4.513-1.987,6.448,6.448,0,0,0,2.022-4.478,4.1,4.1,0,0,0-1.17-2.952c-1.826-1.808-5.178-1.429-7.473.844a6.449,6.449,0,0,0-2.022,4.478A3.958,3.958,0,0,0,122.1,16.4Z" transform="translate(-16.494)" fill="#bd9255"/>
  <path id="Path_6884" data-name="Path 6884" d="M281.905,96.192a7.457,7.457,0,0,0-2.953,4.851,4.656,4.656,0,0,0,.907,3.487h0a4.876,4.876,0,0,0,3.925,1.739,7.809,7.809,0,0,0,4.71-1.7,7.458,7.458,0,0,0,2.953-4.851,4.655,4.655,0,0,0-.907-3.487C288.723,93.93,284.849,93.912,281.905,96.192Zm16.959,39.592c-1.826-1.808-5.178-1.429-7.473.844a6.449,6.449,0,0,0-2.022,4.478,3.959,3.959,0,0,0,4.13,4.1,6.56,6.56,0,0,0,4.513-1.987,6.448,6.448,0,0,0,2.022-4.478A4.1,4.1,0,0,0,298.864,135.783ZM232.581,85.438a7.04,7.04,0,1,0-7.1-7.039A7.077,7.077,0,0,0,232.581,85.438Zm0,12.184a7.04,7.04,0,1,0,7.1,7.039A7.077,7.077,0,0,0,232.581,97.622Zm0,20.294a7.04,7.04,0,1,0,7.1,7.04A7.077,7.077,0,0,0,232.581,117.916Zm0,20.294a7.04,7.04,0,1,0,7.1,7.04A7.077,7.077,0,0,0,232.581,138.211Z" transform="translate(-165.129 -52.259)" fill="#bd9255"/>
</svg>
