<svg id="football" xmlns="http://www.w3.org/2000/svg" width="127.402" height="134.12" viewBox="0 0 127.402 134.12">
  <path id="Path_6890" data-name="Path 6890" d="M239.171,185.381,205.659,156.3a8.134,8.134,0,0,0-1.145-.787l-20.1-11.159a6.514,6.514,0,0,0-3.255-.858H140.888a6.688,6.688,0,0,0,0,13.376h31.9L145.251,205.41a6.732,6.732,0,0,0,2.539,9.156,6.847,6.847,0,0,0,3.29.858,6.669,6.669,0,0,0,5.83-3.4l11.3-19.921,4.041,2.539-22.89,40.343a6.733,6.733,0,0,0,2.539,9.156,6.847,6.847,0,0,0,3.29.858,6.669,6.669,0,0,0,5.83-3.4L201.4,170.4l28.934,25.072a6.7,6.7,0,0,0,8.834-10.086Z" transform="translate(-114.064 -116.676)" fill="#bd9255"/>
  <circle id="Ellipse_2970" data-name="Ellipse 2970" cx="13.412" cy="13.412" r="13.412" transform="translate(73.748)" fill="#bd9255"/>
  <circle id="Ellipse_2971" data-name="Ellipse 2971" cx="13.412" cy="13.412" r="13.412" transform="translate(0 107.296)" fill="#bd9255"/>
</svg>
