<svg id="sports_1_" data-name="sports (1)" xmlns="http://www.w3.org/2000/svg" width="130.727" height="130.621" viewBox="0 0 130.727 130.621">
  <path id="Path_6870" data-name="Path 6870" d="M23.34,18.458a173.169,173.169,0,0,1,34.6,19.64,2.72,2.72,0,0,0,1.578.49h.707a2.72,2.72,0,0,0,1.8-1.469c4.244-9.249,3.863-21.381-1.142-35.145A2.72,2.72,0,0,0,58.1.015,65.285,65.285,0,0,0,22.741,13.834a2.72,2.72,0,0,0,.653,4.679ZM77.2,53.712a2.481,2.481,0,0,0,3.754-.326,96.622,96.622,0,0,0,20.13-39.5A2.72,2.72,0,0,0,100,10.9,65.285,65.285,0,0,0,70.182.015a2.666,2.666,0,0,0-2.394.979,2.72,2.72,0,0,0-.49,2.557c4.624,14.8,4.189,27.2-1.306,37.539a2.72,2.72,0,0,0,.707,3.427c3.591,3.047,7.181,6.093,10.5,9.194ZM94.337,82.764a2.938,2.938,0,0,0-2.231,1.088,31.174,31.174,0,0,0-7.345,18.171A46.244,46.244,0,0,0,89.114,122.1a2.72,2.72,0,0,0,1.578,1.415h.87a2.775,2.775,0,0,0,1.251-.326,65.612,65.612,0,0,0,15.233-10.881,2.72,2.72,0,0,0,.762-2.557A74.806,74.806,0,0,0,96.3,83.743a2.72,2.72,0,0,0-1.959-.979ZM2.013,48.979a73.173,73.173,0,0,0,30.793,5.44,33.622,33.622,0,0,0,21.762-7.671,2.72,2.72,0,0,0,0-4.3A155.922,155.922,0,0,0,16.594,21.777a2.72,2.72,0,0,0-2.992.762A64.9,64.9,0,0,0,.6,45.878a2.72,2.72,0,0,0,1.415,3.1Z" transform="translate(2.43 0.003)" fill="#bd9255"/>
  <path id="Path_6871" data-name="Path 6871" d="M76.285,46.879a2.72,2.72,0,0,0,0-3.808c-3.482-3.264-7.018-6.311-10.391-9.086a2.72,2.72,0,0,0-3.591,0A38.464,38.464,0,0,1,35.1,44.431,86.72,86.72,0,0,1,4.2,39.7,2.72,2.72,0,0,0,.5,41.929a64.306,64.306,0,0,0,12.948,47.6,2.72,2.72,0,0,0,3.1.87A161.689,161.689,0,0,0,76.285,46.879Zm5.44,40.042A38.083,38.083,0,0,1,91.791,63.255a2.72,2.72,0,0,0,0-3.536c-2.557-3.047-5.44-6.093-7.943-8.922a2.829,2.829,0,0,0-2.013-.816,2.72,2.72,0,0,0-2.013.925A169.85,169.85,0,0,1,22.588,94.157a2.72,2.72,0,0,0-.762,4.516A65.285,65.285,0,0,0,84.881,112.6a2.72,2.72,0,0,0,1.687-3.754A52.173,52.173,0,0,1,81.726,86.921Zm5.44-40.912c2.992,3.047,5.876,6.256,8.65,9.575a2.72,2.72,0,0,0,3.754.435,38.355,38.355,0,0,1,27.964-8.7,2.72,2.72,0,0,0,3.047-2.938,65.285,65.285,0,0,0-18.5-40.15,2.72,2.72,0,0,0-4.57,1.142A115.01,115.01,0,0,1,87.166,42.418,2.72,2.72,0,0,0,87.166,46.009Zm42.871,7.617a2.72,2.72,0,0,0-1.9-.925h-.544a32.643,32.643,0,0,0-24.536,7.508,2.72,2.72,0,0,0-.544,3.754,93.086,93.086,0,0,1,12.187,22.415,2.72,2.72,0,0,0,2.231,1.8h.326a2.72,2.72,0,0,0,2.231-1.2A65.285,65.285,0,0,0,130.69,55.638a2.72,2.72,0,0,0-.653-2.013Z" transform="translate(0.027 15.106)" fill="#bd9255"/>
</svg>
