<svg xmlns="http://www.w3.org/2000/svg" width="22.341" height="23.197" viewBox="0 0 22.341 23.197">
  <g id="store_1_" data-name="store (1)" transform="translate(0 -0.5)">
    <path id="Path_7651" data-name="Path 7651" d="M22.338,7.743a.378.378,0,0,0,0-.086.277.277,0,0,0,0-.077L19.073.749A.421.421,0,0,0,18.687.5H3.651a.421.421,0,0,0-.387.249L.043,7.571a.275.275,0,0,0,0,.077.378.378,0,0,0,0,.086H0V23.268a.43.43,0,0,0,.43.43H21.909a.43.43,0,0,0,.43-.43V7.743Zm-11.6,3.17a1.778,1.778,0,0,1-1.778,1.778H8.007a1.778,1.778,0,0,1-1.778-1.778V8.181h4.511Zm-5.37,0a1.778,1.778,0,0,1-1.778,1.778H2.638A1.778,1.778,0,0,1,.859,10.913V8.181H5.37ZM11.6,1.359h3.256l1.16,5.963H11.6Zm-.859,5.963H6.323l1.16-5.963h3.256Zm.859.859h4.511v2.732a1.778,1.778,0,0,1-1.778,1.778h-.954A1.778,1.778,0,0,1,11.6,10.913Zm5.37,0h4.511v2.732A1.778,1.778,0,0,1,19.7,12.691h-.954a1.778,1.778,0,0,1-1.778-1.778Zm4.3-.859H16.891l-1.16-5.963h2.681ZM3.926,1.359H6.607L5.447,7.322h-4.3ZM9.3,22.838v-7.1h4.442v7.1Zm5.3,0V15.312a.43.43,0,0,0-.43-.43h-5.3a.438.438,0,0,0-.43.43v7.526H.859V12.846a2.578,2.578,0,0,0,1.778.7h.954a2.646,2.646,0,0,0,2.208-1.2,2.646,2.646,0,0,0,2.208,1.2h.954a2.646,2.646,0,0,0,2.208-1.2,2.646,2.646,0,0,0,2.208,1.2h.954a2.646,2.646,0,0,0,2.208-1.2,2.646,2.646,0,0,0,2.208,1.2H19.7a2.578,2.578,0,0,0,1.778-.7v9.992Z" transform="translate(0 0)" fill="#667286"/>
  </g>
</svg>
