<svg xmlns="http://www.w3.org/2000/svg" width="20.552" height="23.262" viewBox="0 0 20.552 23.262">
  <g id="testimonials_1_" data-name="testimonials (1)" transform="translate(-3.027 1.1)">
    <path id="Path_6919" data-name="Path 6919" d="M22.323,33.937c-.4-1.649-2.12-2.456-2.826-2.759-.336-.135-.37-.135-3.062-1.413a.276.276,0,0,0-.37.236l.236,3.263a1.215,1.215,0,0,1-.1.606l-2.658,6.258a.4.4,0,0,1-.236.236.53.53,0,0,1-.236-.236L10.413,33.9a1.905,1.905,0,0,1-.1-.606l.236-3.263a.244.244,0,0,0-.37-.236c-2.691,1.245-2.725,1.278-3.062,1.413A4.419,4.419,0,0,0,4.29,33.937c-.168.606-1.514,5.719-.606,7.031.37,1.144,18.807,1.144,19.21,0,.976-1.278-.4-6.426-.572-7.031Zm.168,6.762a.117.117,0,0,0-.034.067c-1.312.74-16.923.74-18.268,0,0-.034-.034-.034-.034-.067-.639-.74.067-4.441.673-6.628.336-1.48,2.019-2.187,2.523-2.389.37-.135.437-.168,2.691-1.245l-.2,2.826a1.844,1.844,0,0,0,.135.841l2.658,6.224a.965.965,0,0,0,.673.572h.1a.98.98,0,0,0,.606-.572L16.7,34.105a2.445,2.445,0,0,0,.135-.841l-.2-2.826c2.288,1.077,2.321,1.11,2.691,1.245a4.032,4.032,0,0,1,2.523,2.389C22.424,36.258,23.13,39.959,22.491,40.7Z" transform="translate(0 -19.964)" fill="#667286" stroke="#667286" stroke-width="0.6"/>
    <path id="Path_6920" data-name="Path 6920" d="M36.252,21.825H33.628a.265.265,0,0,0-.269.269.248.248,0,0,0,.269.269h2.624a.269.269,0,1,0,0-.538ZM27.269,9.138h3.6a.265.265,0,0,0,.269-.269.248.248,0,0,0-.269-.269h-3.6a.269.269,0,0,0,0,.538Zm0,1.884h3.6a.269.269,0,0,0,0-.538h-3.6a.269.269,0,0,0,0,.538Z" transform="translate(-15.679 -6.238)" fill="#667286" stroke="#667286" stroke-width="0.6"/>
    <path id="Path_6921" data-name="Path 6921" d="M19.044,7.5l-.572,1.985a.225.225,0,0,0,.1.269.252.252,0,0,0,.3,0l1.884-1.312c3.533,1.245,7.469-.875,7.469-3.936C28.228,2.151,25.84.2,22.913.2S17.6,2.118,17.6,4.506A3.688,3.688,0,0,0,19.044,7.5ZM22.879.738c2.658,0,4.811,1.682,4.811,3.8,0,2.759-3.7,4.609-6.9,3.4a.207.207,0,0,0-.236.034l-1.413.976.4-1.48a.225.225,0,0,0-.1-.269,3.432,3.432,0,0,1-1.413-2.691C18.068,2.454,20.221.738,22.879.738Z" transform="translate(-9.438 -1)" fill="#667286" stroke="#667286" stroke-width="0.6"/>
  </g>
</svg>
