<svg id="Group_5771" data-name="Group 5771" xmlns="http://www.w3.org/2000/svg" width="15.82" height="17.554" viewBox="0 0 15.82 17.554">
  <g id="Path_5115" data-name="Path 5115" transform="translate(3.093)" fill="none">
    <path d="M4.817,0A4.817,4.817,0,1,1,0,4.817,4.817,4.817,0,0,1,4.817,0Z" stroke="none"/>
    <path d="M 4.817020416259766 1.5 C 2.988010406494141 1.5 1.5 2.988010406494141 1.5 4.817020416259766 C 1.5 6.646030426025391 2.988010406494141 8.134040832519531 4.817020416259766 8.134040832519531 C 6.646030426025391 8.134040832519531 8.134040832519531 6.646030426025391 8.134040832519531 4.817020416259766 C 8.134040832519531 2.988010406494141 6.646030426025391 1.5 4.817020416259766 1.5 M 4.817020416259766 0 C 7.477390289306641 0 9.634040832519531 2.156650543212891 9.634040832519531 4.817020416259766 C 9.634040832519531 7.477390289306641 7.477390289306641 9.634040832519531 4.817020416259766 9.634040832519531 C 2.156650543212891 9.634040832519531 0 7.477390289306641 0 4.817020416259766 C 0 2.156650543212891 2.156650543212891 0 4.817020416259766 0 Z" stroke="none" fill="#fff"/>
  </g>
  <g id="Path_5114" data-name="Path 5114" transform="translate(0.068 8.459)" fill="none">
    <path d="M1.352,3.09C3.1.809,4.488-.383,7.771-.383s4.881.905,6.711,3.473A8.6,8.6,0,0,1,15.626,9.1H-.038S-.393,5.371,1.352,3.09Z" stroke="none"/>
    <path d="M 7.771141052246094 1.117191314697266 C 5.205241203308105 1.117191314697266 4.170741081237793 1.872791290283203 2.543190956115723 4.001001358032227 C 1.794862747192383 4.979525089263916 1.525654792785645 6.456973075866699 1.452396392822266 7.59541130065918 L 14.25082397460938 7.59541130065918 C 14.25743389129639 6.585651397705078 14.09276390075684 5.12690258026123 13.26113128662109 3.960691452026367 C 11.66927146911621 1.728411197662354 10.48918151855469 1.117191314697266 7.771141052246094 1.117191314697266 M 7.771141052246094 -0.3828086853027344 C 11.0538215637207 -0.3828086853027344 12.65175151824951 0.5226316452026367 14.48241138458252 3.089791297912598 C 16.31307220458984 5.656950950622559 15.62610149383545 9.09541130065918 15.62610149383545 9.09541130065918 L -0.03835868835449219 9.09541130065918 C -0.03835868835449219 9.09541130065918 -0.3925294876098633 5.370541572570801 1.351681709289551 3.089791297912598 C 3.095890998840332 0.8090415000915527 4.488461494445801 -0.3828086853027344 7.771141052246094 -0.3828086853027344 Z" stroke="none" fill="#fff"/>
  </g>
</svg>
