<svg xmlns="http://www.w3.org/2000/svg" width="22.753" height="20.963" viewBox="0 0 22.753 20.963">
  <g id="Group_9765" data-name="Group 9765" transform="translate(-582.885 -152.976)">
    <path id="Path_6923" data-name="Path 6923" d="M2.416,1.28H22.892a1.136,1.136,0,0,1,1.141,1.136V20.3a1.136,1.136,0,0,1-1.141,1.141H2.416A1.136,1.136,0,0,1,1.28,20.3V2.416A1.136,1.136,0,0,1,2.416,1.28ZM22.892,2.416H2.416V20.3H22.892V2.416ZM22.892,2.416ZM2.416,2.416Zm20.476,17.23,0,2.6-20.476-2.6,0,2.6" transform="translate(581.605 151.695)" fill="#667286"/>
    <path id="Path_6924" data-name="Path 6924" d="M1.387,2.027h21.52V3.255H1.387Zm13.842,8.984L9.6,14.678a.53.53,0,0,1-.567,0,.628.628,0,0,1-.283-.534V6.768A.624.624,0,0,1,9.06,6.23a.53.53,0,0,1,.583.042l5.628,3.661-.292.525.292-.525a.632.632,0,0,1,.271.553.622.622,0,0,1-.314.525ZM9.882,13.064l4-2.606-4-2.606Z" transform="translate(582.115 154.518)" fill="#667286"/>
    <path id="Path_6925" data-name="Path 6925" d="M3.17,1.353,4.442,5.659l-1.016.386L2.159,1.739Zm5.17,0L9.608,5.659,8.6,6.045,7.324,1.739Zm5.17,0,1.267,4.306-1.016.386L12.495,1.739Z" transform="translate(585.793 152.044)" fill="#667286"/>
  </g>
</svg>
