<svg xmlns="http://www.w3.org/2000/svg" width="14.184" height="14.184" viewBox="0 0 14.184 14.184">
  <path id="whatsapp" d="M7.094,0h0A7.087,7.087,0,0,0,1.35,11.248L.466,13.883l2.726-.871A7.091,7.091,0,1,0,7.094,0ZM11.22,10.014a2,2,0,0,1-1.392,1c-.371.079-.855.142-2.484-.534A8.884,8.884,0,0,1,3.814,7.363a4.05,4.05,0,0,1-.842-2.139A2.264,2.264,0,0,1,3.7,3.5a1.03,1.03,0,0,1,.725-.254c.088,0,.167,0,.238.008.208.009.313.021.45.35.171.412.588,1.43.637,1.534a.422.422,0,0,1,.03.384,1.226,1.226,0,0,1-.23.325c-.1.121-.2.213-.308.342-.1.113-.2.233-.083.441a6.3,6.3,0,0,0,1.151,1.43A5.214,5.214,0,0,0,7.969,9.085a.448.448,0,0,0,.5-.079,8.58,8.58,0,0,0,.554-.734.4.4,0,0,1,.509-.154c.191.066,1.2.567,1.413.671s.346.154.4.242A1.766,1.766,0,0,1,11.22,10.014Z" fill="#bd9255"/>
</svg>
